# xmcd
#
# Track frame offsets:
#	150
#	13896
#	22199
#	33507
#	44371
#	53442
#	65360
#	77054
#	89005
#	104061
#	115840
#	128327
#	134209
#	144969
#	156900
#	167591
#
# Disc length: 2375 seconds
#
# Revision: 0
# Processed by: cddbd v1.5.1PL2 Copyright (c) Steve Scherf et al.
# Submitted via: audiograbber 1.83.01
#
DISCID=dc094510
DTITLE=Various Artist - The Best Of Country And West
DYEAR=1900
DGENRE=
TTITLE0=Charley Pride - Detroit City
TTITLE1=Floyd Cramer - Hey, Good Lookin'
TTITLE2=Connie Smith - In My Baby's Arms Again
TTITLE3=Waylon Jennings - Anita, You're Dreaming
TTITLE4=Chet Atkins - Freight Train
TTITLE5=George Hamilton IV - Steel Rail Blues
TTITLE6=Skeeter Davis - The End Of The World
TTITLE7=Stu Phillips - Bracero
TTITLE8=Jim Reeves - Blue Side Of Lonesome
TTITLE9=Bobby Bare - The Street Of Baltimore
TTITLE10=Hank Snow - The Golden Rocket
TTITLE11=Hank Locklin - Please Help Me, I'm Falling
TTITLE12=Norma Jean - You're Driving Me Out Of My Mind
TTITLE13=Sons Of The Pioneers - Tumbling Tumbleweeds
TTITLE14=Dottie West - Suffertime
TTITLE15=Porter Wagoner - Green Green Grass Of Home
EXTD=
EXTT0=
EXTT1=
EXTT2=
EXTT3=
EXTT4=
EXTT5=
EXTT6=
EXTT7=
EXTT8=
EXTT9=
EXTT10=
EXTT11=
EXTT12=
EXTT13=
EXTT14=
EXTT15=
PLAYORDER=
